{
  "title": "Terminator Genisys {2015} HDCAM READNFO X264 AC3-MRG",
  "uid": 12065876,
  "size": 864674604,
  "categoryP": "video",
  "categoryS": "movies",
  "magnet": "?xt=urn:btih:b9e1baa68ec277e00789651454e0ce54cc937200&amp;dn=Terminator+Genisys+%7B2015%7D+HDCAM+READNFO+X264+AC3-MRG&amp;tr=udp%3A%2F%2Ftracker.openbittorrent.com%3A80&amp;tr=udp%3A%2F%2Fopen.demonii.com%3A1337&amp;tr=udp%3A%2F%2Ftracker.coppersurfer.tk%3A6969&amp;tr=udp%3A%2F%2Fexodus.desync.com%3A6969",
  "seeders": 116,
  "leechers": 18,
  "uploader": "makintos13",
  "files": 10,
  "time": 1435391416,
  "description": "Screens:\n &lt;a href=&quot;\nhttp://imgmak.com/9c&quot; rel=&quot;nofollow&quot; target=&quot;_NEW&quot;&gt;\nhttp://imgmak.com/9c&lt;/a&gt; &lt;a href=&quot;\nhttp://imgmak.com/9n&quot; rel=&quot;nofollow&quot; target=&quot;_NEW&quot;&gt;\nhttp://imgmak.com/9n&lt;/a&gt; &lt;a href=&quot;\nhttp://imgmak.com/9r&quot; rel=&quot;nofollow&quot; target=&quot;_NEW&quot;&gt;\nhttp://imgmak.com/9r&lt;/a&gt; &lt;a href=&quot;\nhttp://imgmak.com/9B&quot; rel=&quot;nofollow&quot; target=&quot;_NEW&quot;&gt;\nhttp://imgmak.com/9B&lt;/a&gt;\n\nTerminator Genisys {2015} HDCAM READNFO X264 AC3-MRG\n\nNFO: WELL EXCLUSIVE FULL HDCAM VOBS SHAME NOT ENG BUT HAY NICE VID READY FOR\nTHAT AUDIO......::}\n\n\nportuguese Audio.\n\nSOURCE                      : HDCAM VOBS....:)TY GUYS\nFormat                      : Matroska\nFormat version              : Version 2\nFile size                   : 823 MiB\nDuration                    : 1h 56mn\nOverall bit rate            : 985 Kbps\n\n\nVideo\nID                          : 1\nFormat                      : AVC\nFormat/Info                 : Advanced Video Codec\nFormat profile              : High@L3\nFormat settings, CABAC      : Yes\nFormat settings, ReFrames   : 4 frames\nCodec ID                    : V_MPEG4/ISO/AVC\nDuration                    : 1h 56mn\nBit rate                    : 774 Kbps\nWidth                       : 720 pixels\nHeight                      : 480 pixels\nDisplay aspect ratio        : 3:2\nFrame rate mode             : Constant\nFrame rate                  : 29.970 fps\nStandard                    : NTSC\nColor space                 : YUV\nChroma subsampling          : 4:2:0\nBit depth                   : 8 bits\nScan type                   : Progressive\nBits/(Pixel*Frame)          : 0.075\nStream size                 : 647 MiB (79%)\nWriting library             : x264 core \n\nAudio\nID                          : 2\nFormat                      : AC-3\nFormat/Info                 : Audio Coding 3\nMode extension              : CM (complete main)\nFormat settings, Endianness : Big\nCodec ID                    : A_AC3\nDuration                    : 1h 56mn\nBit rate mode               : Constant\nBit rate                    : 192 Kbps\nChannel(s)                  : 2 channels\nChannel positions           : Front: L R\nSampling rate               : 22.05 KHz\nCompression mode            : Lossy\nDelay relative to video     : 7ms\nStream size                 : 160 MiB (19%)\nDefault                     : Yes\nForced                      : No",
  "parsed": {
    "xt": "urn:btih:b9e1baa68ec277e00789651454e0ce54cc937200",
    "dn": "Terminator Genisys {2015} HDCAM READNFO X264 AC3-MRG",
    "tr": [
      "udp://exodus.desync.com:6969",
      "udp://open.demonii.com:1337",
      "udp://tracker.coppersurfer.tk:6969",
      "udp://tracker.openbittorrent.com:80"
    ],
    "infoHash": "b9e1baa68ec277e00789651454e0ce54cc937200",
    "infoHashBuffer": {
      "type": "Buffer",
      "data": [
        185,
        225,
        186,
        166,
        142,
        194,
        119,
        224,
        7,
        137,
        101,
        20,
        84,
        224,
        206,
        84,
        204,
        147,
        114,
        0
      ]
    },
    "name": "Terminator Genisys {2015} HDCAM READNFO X264 AC3-MRG",
    "announce": [
      "udp://exodus.desync.com:6969",
      "udp://open.demonii.com:1337",
      "udp://tracker.coppersurfer.tk:6969",
      "udp://tracker.openbittorrent.com:80"
    ],
    "urlList": []
  },
  "previous": 134,
  "peers": 40,
  "last_updated": "2016-12-25T12:11:24.473Z"
}